<mxfile host="Electron" modified="2024-03-06T08:58:30.235Z" agent="Mozilla/5.0 (Windows NT 10.0; Win64; x64) AppleWebKit/537.36 (KHTML, like Gecko) draw.io/22.1.21 Chrome/120.0.6099.109 Electron/28.1.0 Safari/537.36" etag="lvbfTUqHFDL6oq2M5yx2" version="22.1.21" type="device">
  <diagram name="PÃ¡gina-1" id="qfICAe6dKc1MoOX3b-3_">
    <mxGraphModel dx="838" dy="1029" grid="1" gridSize="10" guides="1" tooltips="1" connect="1" arrows="1" fold="1" page="1" pageScale="1" pageWidth="827" pageHeight="1169" math="0" shadow="0">
      <root>
        <mxCell id="0" />
        <mxCell id="1" parent="0" />
        <mxCell id="DR_2ZBFObAg-Pp1f_wcE-1" value="" style="shape=umlLifeline;perimeter=lifelinePerimeter;whiteSpace=wrap;html=1;container=1;dropTarget=0;collapsible=0;recursiveResize=0;outlineConnect=0;portConstraint=eastwest;newEdgeStyle={&quot;curved&quot;:0,&quot;rounded&quot;:0};participant=umlActor;" vertex="1" parent="1">
          <mxGeometry x="120" y="50" width="20" height="620" as="geometry" />
        </mxCell>
        <mxCell id="DR_2ZBFObAg-Pp1f_wcE-30" value="" style="html=1;points=[[0,0,0,0,5],[0,1,0,0,-5],[1,0,0,0,5],[1,1,0,0,-5]];perimeter=orthogonalPerimeter;outlineConnect=0;targetShapes=umlLifeline;portConstraint=eastwest;newEdgeStyle={&quot;curved&quot;:0,&quot;rounded&quot;:0};" vertex="1" parent="DR_2ZBFObAg-Pp1f_wcE-1">
          <mxGeometry x="5" y="100" width="10" height="510" as="geometry" />
        </mxCell>
        <mxCell id="DR_2ZBFObAg-Pp1f_wcE-2" value="" style="shape=umlLifeline;perimeter=lifelinePerimeter;whiteSpace=wrap;html=1;container=1;dropTarget=0;collapsible=0;recursiveResize=0;outlineConnect=0;portConstraint=eastwest;newEdgeStyle={&quot;curved&quot;:0,&quot;rounded&quot;:0};participant=umlBoundary;" vertex="1" parent="1">
          <mxGeometry x="240" y="50" width="50" height="630" as="geometry" />
        </mxCell>
        <mxCell id="DR_2ZBFObAg-Pp1f_wcE-3" value="usuario" style="text;html=1;align=center;verticalAlign=middle;resizable=0;points=[];autosize=1;strokeColor=none;fillColor=none;" vertex="1" parent="1">
          <mxGeometry x="100" y="90" width="60" height="30" as="geometry" />
        </mxCell>
        <mxCell id="DR_2ZBFObAg-Pp1f_wcE-4" value=":aviso" style="text;html=1;align=center;verticalAlign=middle;resizable=0;points=[];autosize=1;strokeColor=none;fillColor=none;" vertex="1" parent="1">
          <mxGeometry x="240" y="90" width="50" height="30" as="geometry" />
        </mxCell>
        <mxCell id="DR_2ZBFObAg-Pp1f_wcE-5" value="" style="shape=umlLifeline;perimeter=lifelinePerimeter;whiteSpace=wrap;html=1;container=1;dropTarget=0;collapsible=0;recursiveResize=0;outlineConnect=0;portConstraint=eastwest;newEdgeStyle={&quot;curved&quot;:0,&quot;rounded&quot;:0};participant=umlControl;" vertex="1" parent="1">
          <mxGeometry x="390" y="50" width="40" height="470" as="geometry" />
        </mxCell>
        <mxCell id="DR_2ZBFObAg-Pp1f_wcE-32" value="" style="html=1;points=[[0,0,0,0,5],[0,1,0,0,-5],[1,0,0,0,5],[1,1,0,0,-5]];perimeter=orthogonalPerimeter;outlineConnect=0;targetShapes=umlLifeline;portConstraint=eastwest;newEdgeStyle={&quot;curved&quot;:0,&quot;rounded&quot;:0};" vertex="1" parent="DR_2ZBFObAg-Pp1f_wcE-5">
          <mxGeometry x="15" y="160" width="10" height="120" as="geometry" />
        </mxCell>
        <mxCell id="DR_2ZBFObAg-Pp1f_wcE-6" value=":gestorAvisos" style="text;html=1;align=center;verticalAlign=middle;resizable=0;points=[];autosize=1;strokeColor=none;fillColor=none;" vertex="1" parent="1">
          <mxGeometry x="360" y="90" width="100" height="30" as="geometry" />
        </mxCell>
        <mxCell id="DR_2ZBFObAg-Pp1f_wcE-7" value="" style="shape=umlLifeline;perimeter=lifelinePerimeter;whiteSpace=wrap;html=1;container=1;dropTarget=0;collapsible=0;recursiveResize=0;outlineConnect=0;portConstraint=eastwest;newEdgeStyle={&quot;curved&quot;:0,&quot;rounded&quot;:0};participant=umlEntity;" vertex="1" parent="1">
          <mxGeometry x="540" y="50" width="40" height="450" as="geometry" />
        </mxCell>
        <mxCell id="DR_2ZBFObAg-Pp1f_wcE-35" value="" style="html=1;points=[[0,0,0,0,5],[0,1,0,0,-5],[1,0,0,0,5],[1,1,0,0,-5]];perimeter=orthogonalPerimeter;outlineConnect=0;targetShapes=umlLifeline;portConstraint=eastwest;newEdgeStyle={&quot;curved&quot;:0,&quot;rounded&quot;:0};" vertex="1" parent="DR_2ZBFObAg-Pp1f_wcE-7">
          <mxGeometry x="15" y="190" width="10" height="50" as="geometry" />
        </mxCell>
        <mxCell id="DR_2ZBFObAg-Pp1f_wcE-36" value="" style="html=1;points=[[0,0,0,0,5],[0,1,0,0,-5],[1,0,0,0,5],[1,1,0,0,-5]];perimeter=orthogonalPerimeter;outlineConnect=0;targetShapes=umlLifeline;portConstraint=eastwest;newEdgeStyle={&quot;curved&quot;:0,&quot;rounded&quot;:0};" vertex="1" parent="DR_2ZBFObAg-Pp1f_wcE-7">
          <mxGeometry x="15" y="385" width="10" height="50" as="geometry" />
        </mxCell>
        <mxCell id="DR_2ZBFObAg-Pp1f_wcE-8" value=":BBDD" style="text;html=1;align=center;verticalAlign=middle;resizable=0;points=[];autosize=1;strokeColor=none;fillColor=none;" vertex="1" parent="1">
          <mxGeometry x="530" y="90" width="60" height="30" as="geometry" />
        </mxCell>
        <mxCell id="DR_2ZBFObAg-Pp1f_wcE-9" value="publicarAviso()" style="html=1;verticalAlign=bottom;endArrow=block;curved=0;rounded=0;" edge="1" parent="1" target="DR_2ZBFObAg-Pp1f_wcE-2">
          <mxGeometry width="80" relative="1" as="geometry">
            <mxPoint x="130" y="160" as="sourcePoint" />
            <mxPoint x="210" y="160" as="targetPoint" />
          </mxGeometry>
        </mxCell>
        <mxCell id="DR_2ZBFObAg-Pp1f_wcE-10" value="rellenarAviso()" style="html=1;verticalAlign=bottom;endArrow=block;curved=0;rounded=0;" edge="1" parent="1" target="DR_2ZBFObAg-Pp1f_wcE-1">
          <mxGeometry width="80" relative="1" as="geometry">
            <mxPoint x="260" y="190" as="sourcePoint" />
            <mxPoint x="340" y="190" as="targetPoint" />
          </mxGeometry>
        </mxCell>
        <mxCell id="DR_2ZBFObAg-Pp1f_wcE-11" value="datosAviso" style="html=1;verticalAlign=bottom;endArrow=open;dashed=1;endSize=8;curved=0;rounded=0;" edge="1" parent="1" target="DR_2ZBFObAg-Pp1f_wcE-2">
          <mxGeometry relative="1" as="geometry">
            <mxPoint x="130" y="220" as="sourcePoint" />
            <mxPoint x="50" y="220" as="targetPoint" />
          </mxGeometry>
        </mxCell>
        <mxCell id="DR_2ZBFObAg-Pp1f_wcE-12" value="validarDatos()" style="html=1;verticalAlign=bottom;endArrow=block;curved=0;rounded=0;" edge="1" parent="1" target="DR_2ZBFObAg-Pp1f_wcE-5">
          <mxGeometry width="80" relative="1" as="geometry">
            <mxPoint x="260" y="240" as="sourcePoint" />
            <mxPoint x="340" y="240" as="targetPoint" />
          </mxGeometry>
        </mxCell>
        <mxCell id="DR_2ZBFObAg-Pp1f_wcE-13" value="validarDatos()" style="html=1;verticalAlign=bottom;endArrow=block;curved=0;rounded=0;" edge="1" parent="1" source="DR_2ZBFObAg-Pp1f_wcE-32">
          <mxGeometry width="80" relative="1" as="geometry">
            <mxPoint x="410" y="250" as="sourcePoint" />
            <mxPoint x="560" y="250" as="targetPoint" />
          </mxGeometry>
        </mxCell>
        <mxCell id="DR_2ZBFObAg-Pp1f_wcE-14" value="datosValidos" style="html=1;verticalAlign=bottom;endArrow=open;dashed=1;endSize=8;curved=0;rounded=0;" edge="1" parent="1" target="DR_2ZBFObAg-Pp1f_wcE-5">
          <mxGeometry x="-0.0033" relative="1" as="geometry">
            <mxPoint x="560" y="280" as="sourcePoint" />
            <mxPoint x="480" y="280" as="targetPoint" />
            <mxPoint as="offset" />
          </mxGeometry>
        </mxCell>
        <mxCell id="DR_2ZBFObAg-Pp1f_wcE-15" value="datosValidos" style="html=1;verticalAlign=bottom;endArrow=open;dashed=1;endSize=8;curved=0;rounded=0;" edge="1" parent="1" target="DR_2ZBFObAg-Pp1f_wcE-2">
          <mxGeometry relative="1" as="geometry">
            <mxPoint x="410" y="310" as="sourcePoint" />
            <mxPoint x="330" y="310" as="targetPoint" />
          </mxGeometry>
        </mxCell>
        <mxCell id="DR_2ZBFObAg-Pp1f_wcE-17" value="alt" style="shape=umlFrame;whiteSpace=wrap;html=1;pointerEvents=0;fillColor=#00CC00;strokeColor=#00FF00;" vertex="1" parent="1">
          <mxGeometry y="320" width="640" height="320" as="geometry" />
        </mxCell>
        <mxCell id="DR_2ZBFObAg-Pp1f_wcE-18" value="[validarDatos: true]" style="text;html=1;align=center;verticalAlign=middle;resizable=0;points=[];autosize=1;strokeColor=none;fillColor=none;" vertex="1" parent="1">
          <mxGeometry y="390" width="120" height="30" as="geometry" />
        </mxCell>
        <mxCell id="DR_2ZBFObAg-Pp1f_wcE-19" value="[validarDatos: false]" style="text;html=1;align=center;verticalAlign=middle;resizable=0;points=[];autosize=1;strokeColor=none;fillColor=none;" vertex="1" parent="1">
          <mxGeometry y="610" width="130" height="30" as="geometry" />
        </mxCell>
        <mxCell id="DR_2ZBFObAg-Pp1f_wcE-20" value="" style="endArrow=none;dashed=1;html=1;rounded=0;strokeColor=#00FF00;exitX=0;exitY=0.884;exitDx=0;exitDy=0;exitPerimeter=0;entryX=1.005;entryY=0.88;entryDx=0;entryDy=0;entryPerimeter=0;" edge="1" parent="1" source="DR_2ZBFObAg-Pp1f_wcE-17" target="DR_2ZBFObAg-Pp1f_wcE-17">
          <mxGeometry width="50" height="50" relative="1" as="geometry">
            <mxPoint y="540" as="sourcePoint" />
            <mxPoint x="650" y="540" as="targetPoint" />
          </mxGeometry>
        </mxCell>
        <mxCell id="DR_2ZBFObAg-Pp1f_wcE-21" value="finProceso()" style="html=1;verticalAlign=bottom;endArrow=open;dashed=1;endSize=8;curved=0;rounded=0;" edge="1" parent="1">
          <mxGeometry relative="1" as="geometry">
            <mxPoint x="265" y="632" as="sourcePoint" />
            <mxPoint x="134.5" y="632" as="targetPoint" />
          </mxGeometry>
        </mxCell>
        <mxCell id="DR_2ZBFObAg-Pp1f_wcE-22" value="elegirTipoFecha()" style="html=1;verticalAlign=bottom;endArrow=block;curved=0;rounded=0;" edge="1" parent="1" target="DR_2ZBFObAg-Pp1f_wcE-1">
          <mxGeometry width="80" relative="1" as="geometry">
            <mxPoint x="260" y="380" as="sourcePoint" />
            <mxPoint x="340" y="380" as="targetPoint" />
          </mxGeometry>
        </mxCell>
        <mxCell id="DR_2ZBFObAg-Pp1f_wcE-23" value="seleccionarFecha()" style="html=1;verticalAlign=bottom;endArrow=block;curved=0;rounded=0;" edge="1" parent="1" target="DR_2ZBFObAg-Pp1f_wcE-2">
          <mxGeometry width="80" relative="1" as="geometry">
            <mxPoint x="130" y="410" as="sourcePoint" />
            <mxPoint x="210" y="410" as="targetPoint" />
          </mxGeometry>
        </mxCell>
        <mxCell id="DR_2ZBFObAg-Pp1f_wcE-24" value="almacenarAviso()" style="html=1;verticalAlign=bottom;endArrow=block;curved=0;rounded=0;" edge="1" parent="1" target="DR_2ZBFObAg-Pp1f_wcE-5">
          <mxGeometry width="80" relative="1" as="geometry">
            <mxPoint x="270" y="430" as="sourcePoint" />
            <mxPoint x="350" y="430" as="targetPoint" />
          </mxGeometry>
        </mxCell>
        <mxCell id="DR_2ZBFObAg-Pp1f_wcE-25" value="almacenarAviso()" style="html=1;verticalAlign=bottom;endArrow=block;curved=0;rounded=0;" edge="1" parent="1" target="DR_2ZBFObAg-Pp1f_wcE-36">
          <mxGeometry width="80" relative="1" as="geometry">
            <mxPoint x="414" y="450" as="sourcePoint" />
            <mxPoint x="530" y="450" as="targetPoint" />
          </mxGeometry>
        </mxCell>
        <mxCell id="DR_2ZBFObAg-Pp1f_wcE-26" value="return" style="html=1;verticalAlign=bottom;endArrow=open;dashed=1;endSize=8;curved=0;rounded=0;" edge="1" parent="1" target="DR_2ZBFObAg-Pp1f_wcE-5">
          <mxGeometry relative="1" as="geometry">
            <mxPoint x="560" y="480" as="sourcePoint" />
            <mxPoint x="480" y="480" as="targetPoint" />
          </mxGeometry>
        </mxCell>
        <mxCell id="DR_2ZBFObAg-Pp1f_wcE-27" value="return" style="html=1;verticalAlign=bottom;endArrow=open;dashed=1;endSize=8;curved=0;rounded=0;" edge="1" parent="1">
          <mxGeometry relative="1" as="geometry">
            <mxPoint x="410" y="500" as="sourcePoint" />
            <mxPoint x="260" y="500" as="targetPoint" />
          </mxGeometry>
        </mxCell>
        <mxCell id="DR_2ZBFObAg-Pp1f_wcE-28" value="" style="endArrow=open;endFill=1;endSize=12;html=1;rounded=0;" edge="1" parent="1" target="DR_2ZBFObAg-Pp1f_wcE-1">
          <mxGeometry width="160" relative="1" as="geometry">
            <mxPoint x="260" y="540" as="sourcePoint" />
            <mxPoint x="420" y="540" as="targetPoint" />
          </mxGeometry>
        </mxCell>
        <mxCell id="DR_2ZBFObAg-Pp1f_wcE-29" value="muestraInformacion()" style="text;html=1;align=center;verticalAlign=middle;resizable=0;points=[];autosize=1;strokeColor=none;fillColor=none;" vertex="1" parent="1">
          <mxGeometry x="130" y="520" width="140" height="30" as="geometry" />
        </mxCell>
        <mxCell id="DR_2ZBFObAg-Pp1f_wcE-31" value="" style="html=1;points=[[0,0,0,0,5],[0,1,0,0,-5],[1,0,0,0,5],[1,1,0,0,-5]];perimeter=orthogonalPerimeter;outlineConnect=0;targetShapes=umlLifeline;portConstraint=eastwest;newEdgeStyle={&quot;curved&quot;:0,&quot;rounded&quot;:0};" vertex="1" parent="1">
          <mxGeometry x="260" y="150" width="10" height="510" as="geometry" />
        </mxCell>
        <mxCell id="DR_2ZBFObAg-Pp1f_wcE-33" value="" style="html=1;points=[[0,0,0,0,5],[0,1,0,0,-5],[1,0,0,0,5],[1,1,0,0,-5]];perimeter=orthogonalPerimeter;outlineConnect=0;targetShapes=umlLifeline;portConstraint=eastwest;newEdgeStyle={&quot;curved&quot;:0,&quot;rounded&quot;:0};" vertex="1" parent="1">
          <mxGeometry x="405" y="420" width="10" height="90" as="geometry" />
        </mxCell>
      </root>
    </mxGraphModel>
  </diagram>
</mxfile>
